%TF.GenerationSoftware,KiCad,Pcbnew,9.0.2*%
%TF.CreationDate,2025-06-05T16:57:29+05:30*%
%TF.ProjectId,Halfwave Rectifier,48616c66-7761-4766-9520-526563746966,rev?*%
%TF.SameCoordinates,Original*%
%TF.FileFunction,Copper,L2,Bot*%
%TF.FilePolarity,Positive*%
%FSLAX46Y46*%
G04 Gerber Fmt 4.6, Leading zero omitted, Abs format (unit mm)*
G04 Created by KiCad (PCBNEW 9.0.2) date 2025-06-05 16:57:29*
%MOMM*%
%LPD*%
G01*
G04 APERTURE LIST*
G04 Aperture macros list*
%AMRoundRect*
0 Rectangle with rounded corners*
0 $1 Rounding radius*
0 $2 $3 $4 $5 $6 $7 $8 $9 X,Y pos of 4 corners*
0 Add a 4 corners polygon primitive as box body*
4,1,4,$2,$3,$4,$5,$6,$7,$8,$9,$2,$3,0*
0 Add four circle primitives for the rounded corners*
1,1,$1+$1,$2,$3*
1,1,$1+$1,$4,$5*
1,1,$1+$1,$6,$7*
1,1,$1+$1,$8,$9*
0 Add four rect primitives between the rounded corners*
20,1,$1+$1,$2,$3,$4,$5,0*
20,1,$1+$1,$4,$5,$6,$7,0*
20,1,$1+$1,$6,$7,$8,$9,0*
20,1,$1+$1,$8,$9,$2,$3,0*%
G04 Aperture macros list end*
%TA.AperFunction,ComponentPad*%
%ADD10C,2.600000*%
%TD*%
%TA.AperFunction,ComponentPad*%
%ADD11RoundRect,0.250000X1.050000X-1.050000X1.050000X1.050000X-1.050000X1.050000X-1.050000X-1.050000X0*%
%TD*%
%TA.AperFunction,ComponentPad*%
%ADD12RoundRect,0.250000X-1.050000X1.050000X-1.050000X-1.050000X1.050000X-1.050000X1.050000X1.050000X0*%
%TD*%
%TA.AperFunction,ComponentPad*%
%ADD13RoundRect,0.249999X0.850001X0.850001X-0.850001X0.850001X-0.850001X-0.850001X0.850001X-0.850001X0*%
%TD*%
%TA.AperFunction,ComponentPad*%
%ADD14C,2.200000*%
%TD*%
%TA.AperFunction,ComponentPad*%
%ADD15C,1.600000*%
%TD*%
%TA.AperFunction,Conductor*%
%ADD16C,0.800000*%
%TD*%
%TA.AperFunction,Conductor*%
%ADD17C,0.600000*%
%TD*%
G04 APERTURE END LIST*
D10*
%TO.P,J2,2,Pin_2*%
%TO.N,GND*%
X224422500Y-149500000D03*
D11*
%TO.P,J2,1,Pin_1*%
%TO.N,Net-(D1-K)*%
X224422500Y-154500000D03*
%TD*%
D10*
%TO.P,J1,2,Pin_2*%
%TO.N,GND*%
X192577500Y-154500000D03*
D12*
%TO.P,J1,1,Pin_1*%
%TO.N,Net-(D1-A)*%
X192577500Y-149500000D03*
%TD*%
D13*
%TO.P,D1,1,K*%
%TO.N,Net-(D1-K)*%
X210750000Y-148000000D03*
D14*
%TO.P,D1,2,A*%
%TO.N,Net-(D1-A)*%
X200590000Y-148000000D03*
%TD*%
D15*
%TO.P,R1,1*%
%TO.N,Net-(D1-K)*%
X214750000Y-147500000D03*
%TO.P,R1,2*%
%TO.N,GND*%
X214750000Y-157660000D03*
%TD*%
D16*
%TO.N,Net-(D1-A)*%
X192577500Y-149500000D02*
X192250000Y-149500000D01*
D17*
%TO.N,Net-(D1-K)*%
X214250000Y-148000000D02*
X214750000Y-147500000D01*
D16*
%TO.N,Net-(D1-A)*%
X192577500Y-149500000D02*
X199090000Y-149500000D01*
D17*
%TO.N,Net-(D1-K)*%
X210750000Y-148000000D02*
X214250000Y-148000000D01*
X214750000Y-147500000D02*
X217422500Y-147500000D01*
X217422500Y-147500000D02*
X224422500Y-154500000D01*
D16*
%TO.N,Net-(D1-A)*%
X199090000Y-149500000D02*
X200590000Y-148000000D01*
%TD*%
%TA.AperFunction,Conductor*%
%TO.N,GND*%
G36*
X231192539Y-143520185D02*
G01*
X231238294Y-143572989D01*
X231249500Y-143624500D01*
X231249500Y-159375500D01*
X231229815Y-159442539D01*
X231177011Y-159488294D01*
X231125500Y-159499500D01*
X185874500Y-159499500D01*
X185807461Y-159479815D01*
X185761706Y-159427011D01*
X185750500Y-159375500D01*
X185750500Y-157557682D01*
X213450000Y-157557682D01*
X213450000Y-157762317D01*
X213482009Y-157964417D01*
X213545244Y-158159031D01*
X213638141Y-158341350D01*
X213638147Y-158341359D01*
X213670523Y-158385921D01*
X213670524Y-158385922D01*
X214350000Y-157706446D01*
X214350000Y-157712661D01*
X214377259Y-157814394D01*
X214429920Y-157905606D01*
X214504394Y-157980080D01*
X214595606Y-158032741D01*
X214697339Y-158060000D01*
X214703553Y-158060000D01*
X214024076Y-158739474D01*
X214068650Y-158771859D01*
X214250968Y-158864755D01*
X214445582Y-158927990D01*
X214647683Y-158960000D01*
X214852317Y-158960000D01*
X215054417Y-158927990D01*
X215249031Y-158864755D01*
X215431349Y-158771859D01*
X215475921Y-158739474D01*
X214796447Y-158060000D01*
X214802661Y-158060000D01*
X214904394Y-158032741D01*
X214995606Y-157980080D01*
X215070080Y-157905606D01*
X215122741Y-157814394D01*
X215150000Y-157712661D01*
X215150000Y-157706447D01*
X215829474Y-158385921D01*
X215861859Y-158341349D01*
X215954755Y-158159031D01*
X216017990Y-157964417D01*
X216050000Y-157762317D01*
X216050000Y-157557682D01*
X216017990Y-157355582D01*
X215954755Y-157160968D01*
X215861859Y-156978650D01*
X215829474Y-156934077D01*
X215829474Y-156934076D01*
X215150000Y-157613551D01*
X215150000Y-157607339D01*
X215122741Y-157505606D01*
X215070080Y-157414394D01*
X214995606Y-157339920D01*
X214904394Y-157287259D01*
X214802661Y-157260000D01*
X214796446Y-157260000D01*
X215475922Y-156580524D01*
X215475921Y-156580523D01*
X215431359Y-156548147D01*
X215431350Y-156548141D01*
X215249031Y-156455244D01*
X215054417Y-156392009D01*
X214852317Y-156360000D01*
X214647683Y-156360000D01*
X214445582Y-156392009D01*
X214250968Y-156455244D01*
X214068644Y-156548143D01*
X214024077Y-156580523D01*
X214024077Y-156580524D01*
X214703554Y-157260000D01*
X214697339Y-157260000D01*
X214595606Y-157287259D01*
X214504394Y-157339920D01*
X214429920Y-157414394D01*
X214377259Y-157505606D01*
X214350000Y-157607339D01*
X214350000Y-157613553D01*
X213670524Y-156934077D01*
X213670523Y-156934077D01*
X213638143Y-156978644D01*
X213545244Y-157160968D01*
X213482009Y-157355582D01*
X213450000Y-157557682D01*
X185750500Y-157557682D01*
X185750500Y-154382014D01*
X190777500Y-154382014D01*
X190777500Y-154617985D01*
X190808299Y-154851914D01*
X190869370Y-155079837D01*
X190959660Y-155297819D01*
X190959665Y-155297828D01*
X191077644Y-155502171D01*
X191077645Y-155502172D01*
X191140221Y-155583723D01*
X191976458Y-154747487D01*
X192001478Y-154807890D01*
X192072612Y-154914351D01*
X192163149Y-155004888D01*
X192269610Y-155076022D01*
X192330011Y-155101041D01*
X191493775Y-155937277D01*
X191575327Y-155999854D01*
X191575328Y-155999855D01*
X191779671Y-156117834D01*
X191779680Y-156117839D01*
X191997663Y-156208129D01*
X191997661Y-156208129D01*
X192225585Y-156269200D01*
X192459514Y-156299999D01*
X192459529Y-156300000D01*
X192695471Y-156300000D01*
X192695485Y-156299999D01*
X192929414Y-156269200D01*
X193157337Y-156208129D01*
X193375319Y-156117839D01*
X193375328Y-156117834D01*
X193579681Y-155999850D01*
X193661223Y-155937279D01*
X193661223Y-155937276D01*
X192824987Y-155101041D01*
X192885390Y-155076022D01*
X192991851Y-155004888D01*
X193082388Y-154914351D01*
X193153522Y-154807890D01*
X193178541Y-154747487D01*
X194014776Y-155583723D01*
X194014779Y-155583723D01*
X194077350Y-155502181D01*
X194195334Y-155297828D01*
X194195339Y-155297819D01*
X194285629Y-155079837D01*
X194346700Y-154851914D01*
X194377499Y-154617985D01*
X194377500Y-154617971D01*
X194377500Y-154382028D01*
X194377499Y-154382014D01*
X194346700Y-154148085D01*
X194285629Y-153920162D01*
X194195339Y-153702180D01*
X194195334Y-153702171D01*
X194077355Y-153497828D01*
X194077354Y-153497827D01*
X194014777Y-153416275D01*
X193178541Y-154252511D01*
X193153522Y-154192110D01*
X193082388Y-154085649D01*
X192991851Y-153995112D01*
X192885390Y-153923978D01*
X192824988Y-153898958D01*
X193661223Y-153062721D01*
X193579672Y-153000145D01*
X193579671Y-153000144D01*
X193375328Y-152882165D01*
X193375319Y-152882160D01*
X193157336Y-152791870D01*
X193157338Y-152791870D01*
X192929414Y-152730799D01*
X192695485Y-152700000D01*
X192459514Y-152700000D01*
X192225585Y-152730799D01*
X191997662Y-152791870D01*
X191779680Y-152882160D01*
X191779671Y-152882165D01*
X191575328Y-153000144D01*
X191575318Y-153000150D01*
X191493775Y-153062720D01*
X191493775Y-153062721D01*
X192330012Y-153898958D01*
X192269610Y-153923978D01*
X192163149Y-153995112D01*
X192072612Y-154085649D01*
X192001478Y-154192110D01*
X191976458Y-154252512D01*
X191140221Y-153416275D01*
X191140220Y-153416275D01*
X191077650Y-153497818D01*
X191077644Y-153497828D01*
X190959665Y-153702171D01*
X190959660Y-153702180D01*
X190869370Y-153920162D01*
X190808299Y-154148085D01*
X190777500Y-154382014D01*
X185750500Y-154382014D01*
X185750500Y-148399983D01*
X190777000Y-148399983D01*
X190777000Y-150600001D01*
X190777001Y-150600018D01*
X190787500Y-150702796D01*
X190787501Y-150702799D01*
X190842685Y-150869331D01*
X190842686Y-150869334D01*
X190934788Y-151018656D01*
X191058844Y-151142712D01*
X191208166Y-151234814D01*
X191374703Y-151289999D01*
X191477491Y-151300500D01*
X193677508Y-151300499D01*
X193780297Y-151289999D01*
X193946834Y-151234814D01*
X194096156Y-151142712D01*
X194220212Y-151018656D01*
X194312314Y-150869334D01*
X194367499Y-150702797D01*
X194378000Y-150600009D01*
X194378000Y-150524500D01*
X194397685Y-150457461D01*
X194450489Y-150411706D01*
X194502000Y-150400500D01*
X199178693Y-150400500D01*
X199178694Y-150400499D01*
X199352666Y-150365895D01*
X199434606Y-150331953D01*
X199516547Y-150298013D01*
X199604959Y-150238936D01*
X199664036Y-150199464D01*
X200245813Y-149617685D01*
X200307134Y-149584202D01*
X200352886Y-149582895D01*
X200464038Y-149600500D01*
X200464040Y-149600500D01*
X200715961Y-149600500D01*
X200715962Y-149600500D01*
X200964785Y-149561090D01*
X201204379Y-149483241D01*
X201428845Y-149368870D01*
X201632656Y-149220793D01*
X201810793Y-149042656D01*
X201958870Y-148838845D01*
X202073241Y-148614379D01*
X202151090Y-148374785D01*
X202190500Y-148125962D01*
X202190500Y-147874038D01*
X202151090Y-147625215D01*
X202073241Y-147385621D01*
X202073239Y-147385618D01*
X202073239Y-147385616D01*
X202012905Y-147267206D01*
X201958870Y-147161155D01*
X201914431Y-147099990D01*
X201914425Y-147099982D01*
X209149500Y-147099982D01*
X209149500Y-148900017D01*
X209160000Y-149002796D01*
X209187455Y-149085649D01*
X209215186Y-149169335D01*
X209307288Y-149318656D01*
X209431344Y-149442712D01*
X209580665Y-149534814D01*
X209747202Y-149589999D01*
X209849990Y-149600500D01*
X209849995Y-149600500D01*
X211650005Y-149600500D01*
X211650010Y-149600500D01*
X211752798Y-149589999D01*
X211919335Y-149534814D01*
X212068656Y-149442712D01*
X212192712Y-149318656D01*
X212284814Y-149169335D01*
X212339999Y-149002798D01*
X212344047Y-148963165D01*
X212349286Y-148911897D01*
X212375682Y-148847205D01*
X212432863Y-148807054D01*
X212472644Y-148800500D01*
X214328843Y-148800500D01*
X214359488Y-148794403D01*
X214448447Y-148776707D01*
X214492034Y-148775852D01*
X214647648Y-148800500D01*
X214647649Y-148800500D01*
X214852351Y-148800500D01*
X214852352Y-148800500D01*
X215054534Y-148768477D01*
X215249219Y-148705220D01*
X215431610Y-148612287D01*
X215524590Y-148544732D01*
X215597213Y-148491971D01*
X215597215Y-148491968D01*
X215597219Y-148491966D01*
X215741966Y-148347219D01*
X215741972Y-148347210D01*
X215744748Y-148343962D01*
X215803258Y-148305773D01*
X215839033Y-148300500D01*
X217039560Y-148300500D01*
X217106599Y-148320185D01*
X217127241Y-148336819D01*
X222585681Y-153795259D01*
X222619166Y-153856582D01*
X222622000Y-153882940D01*
X222622000Y-155600001D01*
X222622001Y-155600018D01*
X222632500Y-155702796D01*
X222632501Y-155702799D01*
X222687685Y-155869331D01*
X222687686Y-155869334D01*
X222779788Y-156018656D01*
X222903844Y-156142712D01*
X223053166Y-156234814D01*
X223219703Y-156289999D01*
X223322491Y-156300500D01*
X225522508Y-156300499D01*
X225625297Y-156289999D01*
X225791834Y-156234814D01*
X225941156Y-156142712D01*
X226065212Y-156018656D01*
X226157314Y-155869334D01*
X226212499Y-155702797D01*
X226223000Y-155600009D01*
X226222999Y-153399992D01*
X226212499Y-153297203D01*
X226157314Y-153130666D01*
X226065212Y-152981344D01*
X225941156Y-152857288D01*
X225791834Y-152765186D01*
X225625297Y-152710001D01*
X225625295Y-152710000D01*
X225522516Y-152699500D01*
X225522509Y-152699500D01*
X223805440Y-152699500D01*
X223738401Y-152679815D01*
X223717759Y-152663181D01*
X222031585Y-150977006D01*
X220436593Y-149382014D01*
X222622500Y-149382014D01*
X222622500Y-149617985D01*
X222653299Y-149851914D01*
X222714370Y-150079837D01*
X222804660Y-150297819D01*
X222804665Y-150297828D01*
X222922644Y-150502171D01*
X222922645Y-150502172D01*
X222985221Y-150583723D01*
X223821458Y-149747487D01*
X223846478Y-149807890D01*
X223917612Y-149914351D01*
X224008149Y-150004888D01*
X224114610Y-150076022D01*
X224175011Y-150101041D01*
X223338775Y-150937277D01*
X223420327Y-150999854D01*
X223420328Y-150999855D01*
X223624671Y-151117834D01*
X223624680Y-151117839D01*
X223842663Y-151208129D01*
X223842661Y-151208129D01*
X224070585Y-151269200D01*
X224304514Y-151299999D01*
X224304529Y-151300000D01*
X224540471Y-151300000D01*
X224540485Y-151299999D01*
X224774414Y-151269200D01*
X225002337Y-151208129D01*
X225220319Y-151117839D01*
X225220328Y-151117834D01*
X225424681Y-150999850D01*
X225506223Y-150937279D01*
X225506223Y-150937276D01*
X224669987Y-150101041D01*
X224730390Y-150076022D01*
X224836851Y-150004888D01*
X224927388Y-149914351D01*
X224998522Y-149807890D01*
X225023541Y-149747487D01*
X225859776Y-150583723D01*
X225859779Y-150583723D01*
X225922350Y-150502181D01*
X226040334Y-150297828D01*
X226040339Y-150297819D01*
X226130629Y-150079837D01*
X226191700Y-149851914D01*
X226222499Y-149617985D01*
X226222500Y-149617971D01*
X226222500Y-149382028D01*
X226222499Y-149382014D01*
X226191700Y-149148085D01*
X226130629Y-148920162D01*
X226040339Y-148702180D01*
X226040334Y-148702171D01*
X225922355Y-148497828D01*
X225922354Y-148497827D01*
X225859777Y-148416275D01*
X225023541Y-149252511D01*
X224998522Y-149192110D01*
X224927388Y-149085649D01*
X224836851Y-148995112D01*
X224730390Y-148923978D01*
X224669988Y-148898958D01*
X225506223Y-148062721D01*
X225424672Y-148000145D01*
X225424671Y-148000144D01*
X225220328Y-147882165D01*
X225220319Y-147882160D01*
X225002336Y-147791870D01*
X225002338Y-147791870D01*
X224774414Y-147730799D01*
X224540485Y-147700000D01*
X224304514Y-147700000D01*
X224070585Y-147730799D01*
X223842662Y-147791870D01*
X223624680Y-147882160D01*
X223624671Y-147882165D01*
X223420328Y-148000144D01*
X223420318Y-148000150D01*
X223338775Y-148062720D01*
X223338775Y-148062721D01*
X224175012Y-148898958D01*
X224114610Y-148923978D01*
X224008149Y-148995112D01*
X223917612Y-149085649D01*
X223846478Y-149192110D01*
X223821458Y-149252512D01*
X222985221Y-148416275D01*
X222985220Y-148416275D01*
X222922650Y-148497818D01*
X222922644Y-148497828D01*
X222804665Y-148702171D01*
X222804660Y-148702180D01*
X222714370Y-148920162D01*
X222653299Y-149148085D01*
X222622500Y-149382014D01*
X220436593Y-149382014D01*
X217932792Y-146878213D01*
X217932788Y-146878210D01*
X217801685Y-146790609D01*
X217801672Y-146790602D01*
X217656001Y-146730264D01*
X217655989Y-146730261D01*
X217501345Y-146699500D01*
X217501342Y-146699500D01*
X215839033Y-146699500D01*
X215771994Y-146679815D01*
X215744748Y-146656038D01*
X215741964Y-146652779D01*
X215597213Y-146508028D01*
X215431613Y-146387715D01*
X215431612Y-146387714D01*
X215431610Y-146387713D01*
X215374653Y-146358691D01*
X215249223Y-146294781D01*
X215054534Y-146231522D01*
X214879995Y-146203878D01*
X214852352Y-146199500D01*
X214647648Y-146199500D01*
X214623329Y-146203351D01*
X214445465Y-146231522D01*
X214250776Y-146294781D01*
X214068386Y-146387715D01*
X213902786Y-146508028D01*
X213758028Y-146652786D01*
X213637715Y-146818386D01*
X213544781Y-147000778D01*
X213508052Y-147113818D01*
X213468614Y-147171494D01*
X213404256Y-147198692D01*
X213390121Y-147199500D01*
X212472644Y-147199500D01*
X212405605Y-147179815D01*
X212359850Y-147127011D01*
X212349286Y-147088103D01*
X212343157Y-147028116D01*
X212339999Y-146997202D01*
X212284814Y-146830665D01*
X212192712Y-146681344D01*
X212068656Y-146557288D01*
X211919335Y-146465186D01*
X211752798Y-146410001D01*
X211752796Y-146410000D01*
X211650017Y-146399500D01*
X211650010Y-146399500D01*
X209849990Y-146399500D01*
X209849982Y-146399500D01*
X209747203Y-146410000D01*
X209747202Y-146410001D01*
X209664669Y-146437349D01*
X209580667Y-146465185D01*
X209580662Y-146465187D01*
X209431342Y-146557289D01*
X209307289Y-146681342D01*
X209215187Y-146830662D01*
X209215186Y-146830665D01*
X209160001Y-146997202D01*
X209160001Y-146997203D01*
X209160000Y-146997203D01*
X209149500Y-147099982D01*
X201914425Y-147099982D01*
X201810798Y-146957350D01*
X201810794Y-146957345D01*
X201632654Y-146779205D01*
X201632649Y-146779201D01*
X201428848Y-146631132D01*
X201428847Y-146631131D01*
X201428845Y-146631130D01*
X201358747Y-146595413D01*
X201204383Y-146516760D01*
X200964785Y-146438910D01*
X200715962Y-146399500D01*
X200464038Y-146399500D01*
X200397738Y-146410001D01*
X200215214Y-146438910D01*
X199975616Y-146516760D01*
X199751151Y-146631132D01*
X199547350Y-146779201D01*
X199547345Y-146779205D01*
X199369205Y-146957345D01*
X199369201Y-146957350D01*
X199221132Y-147161151D01*
X199106760Y-147385616D01*
X199028910Y-147625214D01*
X198989500Y-147874038D01*
X198989500Y-148125967D01*
X199007103Y-148237108D01*
X198998148Y-148306402D01*
X198972311Y-148344187D01*
X198753317Y-148563182D01*
X198691997Y-148596666D01*
X198665638Y-148599500D01*
X194501999Y-148599500D01*
X194434960Y-148579815D01*
X194389205Y-148527011D01*
X194377999Y-148475500D01*
X194377999Y-148399998D01*
X194377998Y-148399981D01*
X194367499Y-148297203D01*
X194367498Y-148297200D01*
X194347585Y-148237108D01*
X194312314Y-148130666D01*
X194220212Y-147981344D01*
X194096156Y-147857288D01*
X193946834Y-147765186D01*
X193780297Y-147710001D01*
X193780295Y-147710000D01*
X193677510Y-147699500D01*
X191477498Y-147699500D01*
X191477481Y-147699501D01*
X191374703Y-147710000D01*
X191374700Y-147710001D01*
X191208168Y-147765185D01*
X191208163Y-147765187D01*
X191058842Y-147857289D01*
X190934789Y-147981342D01*
X190842687Y-148130663D01*
X190842686Y-148130666D01*
X190787501Y-148297203D01*
X190787501Y-148297204D01*
X190787500Y-148297204D01*
X190777000Y-148399983D01*
X185750500Y-148399983D01*
X185750500Y-143624500D01*
X185770185Y-143557461D01*
X185822989Y-143511706D01*
X185874500Y-143500500D01*
X231125500Y-143500500D01*
X231192539Y-143520185D01*
G37*
%TD.AperFunction*%
%TD*%
M02*
