%TF.GenerationSoftware,KiCad,Pcbnew,9.0.2*%
%TF.CreationDate,2025-06-10T22:08:15+05:30*%
%TF.ProjectId,Ohm's Law,4f686d27-7320-44c6-9177-2e6b69636164,rev?*%
%TF.SameCoordinates,Original*%
%TF.FileFunction,Legend,Top*%
%TF.FilePolarity,Positive*%
%FSLAX46Y46*%
G04 Gerber Fmt 4.6, Leading zero omitted, Abs format (unit mm)*
G04 Created by KiCad (PCBNEW 9.0.2) date 2025-06-10 22:08:15*
%MOMM*%
%LPD*%
G01*
G04 APERTURE LIST*
%ADD10C,0.150000*%
%ADD11C,0.120000*%
G04 APERTURE END LIST*
D10*
X158075476Y-131184819D02*
X158408809Y-132184819D01*
X158408809Y-132184819D02*
X158742142Y-131184819D01*
X159599285Y-132184819D02*
X159027857Y-132184819D01*
X159313571Y-132184819D02*
X159313571Y-131184819D01*
X159313571Y-131184819D02*
X159218333Y-131327676D01*
X159218333Y-131327676D02*
X159123095Y-131422914D01*
X159123095Y-131422914D02*
X159027857Y-131470533D01*
X172324819Y-136166666D02*
X171848628Y-136499999D01*
X172324819Y-136738094D02*
X171324819Y-136738094D01*
X171324819Y-136738094D02*
X171324819Y-136357142D01*
X171324819Y-136357142D02*
X171372438Y-136261904D01*
X171372438Y-136261904D02*
X171420057Y-136214285D01*
X171420057Y-136214285D02*
X171515295Y-136166666D01*
X171515295Y-136166666D02*
X171658152Y-136166666D01*
X171658152Y-136166666D02*
X171753390Y-136214285D01*
X171753390Y-136214285D02*
X171801009Y-136261904D01*
X171801009Y-136261904D02*
X171848628Y-136357142D01*
X171848628Y-136357142D02*
X171848628Y-136738094D01*
X172324819Y-135214285D02*
X172324819Y-135785713D01*
X172324819Y-135499999D02*
X171324819Y-135499999D01*
X171324819Y-135499999D02*
X171467676Y-135595237D01*
X171467676Y-135595237D02*
X171562914Y-135690475D01*
X171562914Y-135690475D02*
X171610533Y-135785713D01*
D11*
%TO.C,V1*%
X153230000Y-132730000D02*
X154500000Y-132730000D01*
X153230000Y-134000000D02*
X153230000Y-132730000D01*
X155577358Y-136110000D02*
X155890000Y-136110000D01*
X155577358Y-136970000D02*
X155890000Y-136970000D01*
X155660000Y-133570000D02*
X155890000Y-133570000D01*
X155660000Y-134430000D02*
X155890000Y-134430000D01*
X155890000Y-132620000D02*
X155890000Y-137920000D01*
X155890000Y-135270000D02*
X158650000Y-135270000D01*
X155890000Y-137920000D02*
X158650000Y-137920000D01*
X158650000Y-132620000D02*
X155890000Y-132620000D01*
X158650000Y-136110000D02*
X164650000Y-136110000D01*
X158650000Y-137920000D02*
X158650000Y-132620000D01*
X164650000Y-136110000D02*
X164650000Y-136970000D01*
X164650000Y-136970000D02*
X158650000Y-136970000D01*
X158650000Y-133570000D02*
X164650000Y-133570000D01*
X164650000Y-134430000D01*
X158650000Y-134430000D01*
X158650000Y-133570000D01*
G36*
X158650000Y-133570000D02*
G01*
X164650000Y-133570000D01*
X164650000Y-134430000D01*
X158650000Y-134430000D01*
X158650000Y-133570000D01*
G37*
%TO.C,R1*%
X169500000Y-131960000D02*
X169500000Y-132730000D01*
X169500000Y-140040000D02*
X169500000Y-139270000D01*
X170870000Y-132730000D02*
X168130000Y-132730000D01*
X168130000Y-139270000D01*
X170870000Y-139270000D01*
X170870000Y-132730000D01*
%TD*%
M02*
