%TF.GenerationSoftware,KiCad,Pcbnew,9.0.2*%
%TF.CreationDate,2025-06-05T14:58:04+05:30*%
%TF.ProjectId,fullwave rectifier,66756c6c-7761-4766-9520-726563746966,v1*%
%TF.SameCoordinates,Original*%
%TF.FileFunction,Copper,L2,Bot*%
%TF.FilePolarity,Positive*%
%FSLAX46Y46*%
G04 Gerber Fmt 4.6, Leading zero omitted, Abs format (unit mm)*
G04 Created by KiCad (PCBNEW 9.0.2) date 2025-06-05 14:58:04*
%MOMM*%
%LPD*%
G01*
G04 APERTURE LIST*
G04 Aperture macros list*
%AMRoundRect*
0 Rectangle with rounded corners*
0 $1 Rounding radius*
0 $2 $3 $4 $5 $6 $7 $8 $9 X,Y pos of 4 corners*
0 Add a 4 corners polygon primitive as box body*
4,1,4,$2,$3,$4,$5,$6,$7,$8,$9,$2,$3,0*
0 Add four circle primitives for the rounded corners*
1,1,$1+$1,$2,$3*
1,1,$1+$1,$4,$5*
1,1,$1+$1,$6,$7*
1,1,$1+$1,$8,$9*
0 Add four rect primitives between the rounded corners*
20,1,$1+$1,$2,$3,$4,$5,0*
20,1,$1+$1,$4,$5,$6,$7,0*
20,1,$1+$1,$6,$7,$8,$9,0*
20,1,$1+$1,$8,$9,$2,$3,0*%
G04 Aperture macros list end*
%TA.AperFunction,ComponentPad*%
%ADD10RoundRect,0.250000X1.050000X-1.050000X1.050000X1.050000X-1.050000X1.050000X-1.050000X-1.050000X0*%
%TD*%
%TA.AperFunction,ComponentPad*%
%ADD11C,2.600000*%
%TD*%
%TA.AperFunction,ComponentPad*%
%ADD12RoundRect,0.249999X0.850001X0.850001X-0.850001X0.850001X-0.850001X-0.850001X0.850001X-0.850001X0*%
%TD*%
%TA.AperFunction,ComponentPad*%
%ADD13C,2.200000*%
%TD*%
%TA.AperFunction,ComponentPad*%
%ADD14C,1.600000*%
%TD*%
%TA.AperFunction,Conductor*%
%ADD15C,0.200000*%
%TD*%
G04 APERTURE END LIST*
D10*
%TO.P,J2,1,Pin_1*%
%TO.N,Net-(D1-K)*%
X220000000Y-148500000D03*
D11*
%TO.P,J2,2,Pin_2*%
%TO.N,GND*%
X220000000Y-143500000D03*
%TD*%
D12*
%TO.P,D1,1,K*%
%TO.N,Net-(D1-K)*%
X211407500Y-137500000D03*
D13*
%TO.P,D1,2,A*%
%TO.N,Net-(D1-A)*%
X201247500Y-137500000D03*
%TD*%
D10*
%TO.P,J1,1,Pin_1*%
%TO.N,Net-(D2-A)*%
X189827500Y-150500000D03*
D11*
%TO.P,J1,2,Pin_2*%
%TO.N,GND*%
X189827500Y-145500000D03*
%TO.P,J1,3,Pin_3*%
%TO.N,Net-(D1-A)*%
X189827500Y-140500000D03*
%TD*%
D12*
%TO.P,D2,1,K*%
%TO.N,Net-(D1-K)*%
X211407500Y-153500000D03*
D13*
%TO.P,D2,2,A*%
%TO.N,Net-(D2-A)*%
X201247500Y-153500000D03*
%TD*%
D14*
%TO.P,R1,1*%
%TO.N,GND*%
X200827500Y-145500000D03*
%TO.P,R1,2*%
%TO.N,Net-(D1-K)*%
X210987500Y-145500000D03*
%TD*%
D15*
%TO.N,Net-(D2-A)*%
X196327500Y-150500000D02*
X189827500Y-150500000D01*
X199327500Y-153500000D02*
X196327500Y-150500000D01*
X201247500Y-153500000D02*
X199327500Y-153500000D01*
%TO.N,Net-(D1-A)*%
X192827500Y-137500000D02*
X201247500Y-137500000D01*
X189827500Y-140500000D02*
X192827500Y-137500000D01*
%TO.N,Net-(D1-K)*%
X210987500Y-137920000D02*
X211407500Y-137500000D01*
X210987500Y-145500000D02*
X210987500Y-137920000D01*
X211407500Y-153500000D02*
X211407500Y-145920000D01*
X211407500Y-137500000D02*
X211407500Y-139907500D01*
X211407500Y-139907500D02*
X220000000Y-148500000D01*
X211407500Y-145920000D02*
X210987500Y-145500000D01*
%TD*%
%TA.AperFunction,Conductor*%
%TO.N,GND*%
G36*
X229270039Y-133520185D02*
G01*
X229315794Y-133572989D01*
X229327000Y-133624500D01*
X229327000Y-157875500D01*
X229307315Y-157942539D01*
X229254511Y-157988294D01*
X229203000Y-157999500D01*
X180452000Y-157999500D01*
X180384961Y-157979815D01*
X180339206Y-157927011D01*
X180328000Y-157875500D01*
X180328000Y-149399983D01*
X188027000Y-149399983D01*
X188027000Y-151600001D01*
X188027001Y-151600018D01*
X188037500Y-151702796D01*
X188037501Y-151702799D01*
X188092685Y-151869331D01*
X188092687Y-151869336D01*
X188111292Y-151899500D01*
X188184788Y-152018656D01*
X188308844Y-152142712D01*
X188458166Y-152234814D01*
X188624703Y-152289999D01*
X188727491Y-152300500D01*
X190927508Y-152300499D01*
X191030297Y-152289999D01*
X191196834Y-152234814D01*
X191346156Y-152142712D01*
X191470212Y-152018656D01*
X191562314Y-151869334D01*
X191617499Y-151702797D01*
X191628000Y-151600009D01*
X191628000Y-151224500D01*
X191647685Y-151157461D01*
X191700489Y-151111706D01*
X191752000Y-151100500D01*
X196027403Y-151100500D01*
X196094442Y-151120185D01*
X196115083Y-151136818D01*
X198958784Y-153980520D01*
X198958786Y-153980521D01*
X198958790Y-153980524D01*
X199095709Y-154059573D01*
X199095716Y-154059577D01*
X199248443Y-154100501D01*
X199248445Y-154100501D01*
X199414154Y-154100501D01*
X199414170Y-154100500D01*
X199681200Y-154100500D01*
X199748239Y-154120185D01*
X199791685Y-154168205D01*
X199878632Y-154338848D01*
X200026701Y-154542649D01*
X200026705Y-154542654D01*
X200204845Y-154720794D01*
X200204850Y-154720798D01*
X200382617Y-154849952D01*
X200408655Y-154868870D01*
X200551684Y-154941747D01*
X200633116Y-154983239D01*
X200633118Y-154983239D01*
X200633121Y-154983241D01*
X200872715Y-155061090D01*
X201121538Y-155100500D01*
X201121539Y-155100500D01*
X201373461Y-155100500D01*
X201373462Y-155100500D01*
X201622285Y-155061090D01*
X201861879Y-154983241D01*
X202086345Y-154868870D01*
X202290156Y-154720793D01*
X202468293Y-154542656D01*
X202616370Y-154338845D01*
X202730741Y-154114379D01*
X202808590Y-153874785D01*
X202848000Y-153625962D01*
X202848000Y-153374038D01*
X202808590Y-153125215D01*
X202730741Y-152885621D01*
X202730739Y-152885618D01*
X202730739Y-152885616D01*
X202689247Y-152804184D01*
X202616370Y-152661155D01*
X202571925Y-152599982D01*
X202468298Y-152457350D01*
X202468294Y-152457345D01*
X202290154Y-152279205D01*
X202290149Y-152279201D01*
X202086348Y-152131132D01*
X202086347Y-152131131D01*
X202086345Y-152131130D01*
X202016247Y-152095413D01*
X201861883Y-152016760D01*
X201622285Y-151938910D01*
X201373462Y-151899500D01*
X201121538Y-151899500D01*
X201055238Y-151910001D01*
X200872714Y-151938910D01*
X200633116Y-152016760D01*
X200408651Y-152131132D01*
X200204850Y-152279201D01*
X200204845Y-152279205D01*
X200026705Y-152457345D01*
X200026701Y-152457350D01*
X199878632Y-152661151D01*
X199791685Y-152831795D01*
X199781235Y-152842859D01*
X199774913Y-152856703D01*
X199757733Y-152867743D01*
X199743711Y-152882591D01*
X199728029Y-152886832D01*
X199716135Y-152894477D01*
X199681200Y-152899500D01*
X199627598Y-152899500D01*
X199560559Y-152879815D01*
X199539917Y-152863181D01*
X196815090Y-150138355D01*
X196815088Y-150138352D01*
X196696217Y-150019481D01*
X196696216Y-150019480D01*
X196609404Y-149969360D01*
X196609404Y-149969359D01*
X196609400Y-149969358D01*
X196559285Y-149940423D01*
X196406557Y-149899499D01*
X196248443Y-149899499D01*
X196240847Y-149899499D01*
X196240831Y-149899500D01*
X191751999Y-149899500D01*
X191684960Y-149879815D01*
X191639205Y-149827011D01*
X191627999Y-149775500D01*
X191627999Y-149399998D01*
X191627998Y-149399981D01*
X191617499Y-149297203D01*
X191617498Y-149297200D01*
X191562314Y-149130666D01*
X191470212Y-148981344D01*
X191346156Y-148857288D01*
X191196834Y-148765186D01*
X191030297Y-148710001D01*
X191030295Y-148710000D01*
X190927510Y-148699500D01*
X188727498Y-148699500D01*
X188727481Y-148699501D01*
X188624703Y-148710000D01*
X188624700Y-148710001D01*
X188458168Y-148765185D01*
X188458163Y-148765187D01*
X188308842Y-148857289D01*
X188184789Y-148981342D01*
X188092687Y-149130663D01*
X188092686Y-149130666D01*
X188037501Y-149297203D01*
X188037501Y-149297204D01*
X188037500Y-149297204D01*
X188027000Y-149399983D01*
X180328000Y-149399983D01*
X180328000Y-145382014D01*
X188027500Y-145382014D01*
X188027500Y-145617985D01*
X188058299Y-145851914D01*
X188119370Y-146079837D01*
X188209660Y-146297819D01*
X188209665Y-146297828D01*
X188327644Y-146502171D01*
X188327645Y-146502172D01*
X188390221Y-146583723D01*
X189226458Y-145747487D01*
X189251478Y-145807890D01*
X189322612Y-145914351D01*
X189413149Y-146004888D01*
X189519610Y-146076022D01*
X189580011Y-146101041D01*
X188743775Y-146937277D01*
X188825327Y-146999854D01*
X188825328Y-146999855D01*
X189029671Y-147117834D01*
X189029680Y-147117839D01*
X189247663Y-147208129D01*
X189247661Y-147208129D01*
X189475585Y-147269200D01*
X189709514Y-147299999D01*
X189709529Y-147300000D01*
X189945471Y-147300000D01*
X189945485Y-147299999D01*
X190179414Y-147269200D01*
X190407337Y-147208129D01*
X190625319Y-147117839D01*
X190625328Y-147117834D01*
X190829681Y-146999850D01*
X190911223Y-146937279D01*
X190911223Y-146937276D01*
X190074987Y-146101041D01*
X190135390Y-146076022D01*
X190241851Y-146004888D01*
X190332388Y-145914351D01*
X190403522Y-145807890D01*
X190428541Y-145747488D01*
X191264776Y-146583723D01*
X191264779Y-146583723D01*
X191327354Y-146502175D01*
X191345808Y-146470214D01*
X191445331Y-146297835D01*
X191445339Y-146297819D01*
X191535629Y-146079837D01*
X191596700Y-145851914D01*
X191627499Y-145617985D01*
X191627500Y-145617971D01*
X191627500Y-145397682D01*
X199527500Y-145397682D01*
X199527500Y-145602317D01*
X199559509Y-145804417D01*
X199622744Y-145999031D01*
X199715641Y-146181350D01*
X199715647Y-146181359D01*
X199748023Y-146225921D01*
X199748024Y-146225922D01*
X200427500Y-145546446D01*
X200427500Y-145552661D01*
X200454759Y-145654394D01*
X200507420Y-145745606D01*
X200581894Y-145820080D01*
X200673106Y-145872741D01*
X200774839Y-145900000D01*
X200781053Y-145900000D01*
X200101576Y-146579474D01*
X200146150Y-146611859D01*
X200328468Y-146704755D01*
X200523082Y-146767990D01*
X200725183Y-146800000D01*
X200929817Y-146800000D01*
X201131917Y-146767990D01*
X201326531Y-146704755D01*
X201508849Y-146611859D01*
X201553421Y-146579474D01*
X200873947Y-145900000D01*
X200880161Y-145900000D01*
X200981894Y-145872741D01*
X201073106Y-145820080D01*
X201147580Y-145745606D01*
X201200241Y-145654394D01*
X201227500Y-145552661D01*
X201227500Y-145546447D01*
X201906974Y-146225921D01*
X201939359Y-146181349D01*
X202032255Y-145999031D01*
X202095490Y-145804417D01*
X202127500Y-145602317D01*
X202127500Y-145397682D01*
X202127495Y-145397648D01*
X209687000Y-145397648D01*
X209687000Y-145602351D01*
X209719022Y-145804534D01*
X209782281Y-145999223D01*
X209821413Y-146076022D01*
X209875085Y-146181359D01*
X209875215Y-146181613D01*
X209995528Y-146347213D01*
X210140286Y-146491971D01*
X210295249Y-146604556D01*
X210305890Y-146612287D01*
X210405775Y-146663181D01*
X210488276Y-146705218D01*
X210488278Y-146705218D01*
X210488281Y-146705220D01*
X210682966Y-146768477D01*
X210702397Y-146771554D01*
X210765529Y-146801480D01*
X210802463Y-146860790D01*
X210807000Y-146894027D01*
X210807000Y-151775500D01*
X210787315Y-151842539D01*
X210734511Y-151888294D01*
X210683000Y-151899500D01*
X210507482Y-151899500D01*
X210404703Y-151910000D01*
X210404702Y-151910001D01*
X210322169Y-151937349D01*
X210238167Y-151965185D01*
X210238162Y-151965187D01*
X210088842Y-152057289D01*
X209964789Y-152181342D01*
X209872687Y-152330662D01*
X209872686Y-152330665D01*
X209817501Y-152497202D01*
X209817501Y-152497203D01*
X209817500Y-152497203D01*
X209807000Y-152599982D01*
X209807000Y-154400017D01*
X209817500Y-154502796D01*
X209872685Y-154669332D01*
X209872686Y-154669335D01*
X209964788Y-154818656D01*
X210088844Y-154942712D01*
X210238165Y-155034814D01*
X210404702Y-155089999D01*
X210507490Y-155100500D01*
X210507495Y-155100500D01*
X212307505Y-155100500D01*
X212307510Y-155100500D01*
X212410298Y-155089999D01*
X212576835Y-155034814D01*
X212726156Y-154942712D01*
X212850212Y-154818656D01*
X212942314Y-154669335D01*
X212997499Y-154502798D01*
X213008000Y-154400010D01*
X213008000Y-152599990D01*
X212997499Y-152497202D01*
X212942314Y-152330665D01*
X212850212Y-152181344D01*
X212726156Y-152057288D01*
X212576835Y-151965186D01*
X212410298Y-151910001D01*
X212410296Y-151910000D01*
X212307517Y-151899500D01*
X212307510Y-151899500D01*
X212132000Y-151899500D01*
X212064961Y-151879815D01*
X212019206Y-151827011D01*
X212008000Y-151775500D01*
X212008000Y-146348233D01*
X212027685Y-146281194D01*
X212031664Y-146275372D01*
X212099787Y-146181610D01*
X212189306Y-146005917D01*
X212192718Y-145999223D01*
X212192718Y-145999222D01*
X212192720Y-145999219D01*
X212255977Y-145804534D01*
X212288000Y-145602352D01*
X212288000Y-145397648D01*
X212267656Y-145269200D01*
X212255977Y-145195465D01*
X212220295Y-145085649D01*
X212192720Y-145000781D01*
X212192718Y-145000778D01*
X212192718Y-145000776D01*
X212153587Y-144923978D01*
X212099787Y-144818390D01*
X212067592Y-144774077D01*
X211979471Y-144652786D01*
X211834713Y-144508028D01*
X211669110Y-144387712D01*
X211655700Y-144380879D01*
X211604906Y-144332903D01*
X211588000Y-144270397D01*
X211588000Y-141236597D01*
X211607685Y-141169558D01*
X211660489Y-141123803D01*
X211729647Y-141113859D01*
X211793203Y-141142884D01*
X211799681Y-141148916D01*
X218163181Y-147512416D01*
X218196666Y-147573739D01*
X218199500Y-147600097D01*
X218199500Y-149600001D01*
X218199501Y-149600018D01*
X218210000Y-149702796D01*
X218210001Y-149702799D01*
X218265185Y-149869331D01*
X218265186Y-149869334D01*
X218357288Y-150018656D01*
X218481344Y-150142712D01*
X218630666Y-150234814D01*
X218797203Y-150289999D01*
X218899991Y-150300500D01*
X221100008Y-150300499D01*
X221202797Y-150289999D01*
X221369334Y-150234814D01*
X221518656Y-150142712D01*
X221642712Y-150018656D01*
X221734814Y-149869334D01*
X221789999Y-149702797D01*
X221800500Y-149600009D01*
X221800499Y-147399992D01*
X221789999Y-147297203D01*
X221734814Y-147130666D01*
X221642712Y-146981344D01*
X221518656Y-146857288D01*
X221425777Y-146800000D01*
X221369336Y-146765187D01*
X221369331Y-146765185D01*
X221367862Y-146764698D01*
X221202797Y-146710001D01*
X221202795Y-146710000D01*
X221100016Y-146699500D01*
X221100009Y-146699500D01*
X219100097Y-146699500D01*
X219033058Y-146679815D01*
X219012416Y-146663181D01*
X215731249Y-143382014D01*
X218200000Y-143382014D01*
X218200000Y-143617985D01*
X218230799Y-143851914D01*
X218291870Y-144079837D01*
X218382160Y-144297819D01*
X218382165Y-144297828D01*
X218500144Y-144502171D01*
X218500145Y-144502172D01*
X218562721Y-144583723D01*
X219398958Y-143747487D01*
X219423978Y-143807890D01*
X219495112Y-143914351D01*
X219585649Y-144004888D01*
X219692110Y-144076022D01*
X219752511Y-144101041D01*
X218916275Y-144937277D01*
X218997827Y-144999854D01*
X218997828Y-144999855D01*
X219202171Y-145117834D01*
X219202180Y-145117839D01*
X219420163Y-145208129D01*
X219420161Y-145208129D01*
X219648085Y-145269200D01*
X219882014Y-145299999D01*
X219882029Y-145300000D01*
X220117971Y-145300000D01*
X220117985Y-145299999D01*
X220351914Y-145269200D01*
X220579837Y-145208129D01*
X220797819Y-145117839D01*
X220797828Y-145117834D01*
X221002181Y-144999850D01*
X221083723Y-144937279D01*
X221083723Y-144937276D01*
X220247487Y-144101041D01*
X220307890Y-144076022D01*
X220414351Y-144004888D01*
X220504888Y-143914351D01*
X220576022Y-143807890D01*
X220601041Y-143747488D01*
X221437276Y-144583723D01*
X221437279Y-144583723D01*
X221499850Y-144502181D01*
X221617834Y-144297828D01*
X221617839Y-144297819D01*
X221708129Y-144079837D01*
X221769200Y-143851914D01*
X221799999Y-143617985D01*
X221800000Y-143617971D01*
X221800000Y-143382028D01*
X221799999Y-143382014D01*
X221769200Y-143148085D01*
X221708129Y-142920162D01*
X221617839Y-142702180D01*
X221617834Y-142702171D01*
X221499855Y-142497828D01*
X221499854Y-142497827D01*
X221437277Y-142416275D01*
X220601041Y-143252511D01*
X220576022Y-143192110D01*
X220504888Y-143085649D01*
X220414351Y-142995112D01*
X220307890Y-142923978D01*
X220247488Y-142898958D01*
X221083723Y-142062721D01*
X221002172Y-142000145D01*
X221002171Y-142000144D01*
X220797828Y-141882165D01*
X220797819Y-141882160D01*
X220579836Y-141791870D01*
X220579838Y-141791870D01*
X220351914Y-141730799D01*
X220117985Y-141700000D01*
X219882014Y-141700000D01*
X219648085Y-141730799D01*
X219420162Y-141791870D01*
X219202180Y-141882160D01*
X219202171Y-141882165D01*
X218997828Y-142000144D01*
X218997818Y-142000150D01*
X218916275Y-142062720D01*
X218916275Y-142062721D01*
X219752512Y-142898958D01*
X219692110Y-142923978D01*
X219585649Y-142995112D01*
X219495112Y-143085649D01*
X219423978Y-143192110D01*
X219398958Y-143252512D01*
X218562721Y-142416275D01*
X218562720Y-142416275D01*
X218500150Y-142497818D01*
X218500144Y-142497828D01*
X218382165Y-142702171D01*
X218382160Y-142702180D01*
X218291870Y-142920162D01*
X218230799Y-143148085D01*
X218200000Y-143382014D01*
X215731249Y-143382014D01*
X212044319Y-139695084D01*
X212010834Y-139633761D01*
X212008000Y-139607403D01*
X212008000Y-139224500D01*
X212027685Y-139157461D01*
X212080489Y-139111706D01*
X212132000Y-139100500D01*
X212307505Y-139100500D01*
X212307510Y-139100500D01*
X212410298Y-139089999D01*
X212576835Y-139034814D01*
X212726156Y-138942712D01*
X212850212Y-138818656D01*
X212942314Y-138669335D01*
X212997499Y-138502798D01*
X213008000Y-138400010D01*
X213008000Y-136599990D01*
X212997499Y-136497202D01*
X212942314Y-136330665D01*
X212850212Y-136181344D01*
X212726156Y-136057288D01*
X212576835Y-135965186D01*
X212410298Y-135910001D01*
X212410296Y-135910000D01*
X212307517Y-135899500D01*
X212307510Y-135899500D01*
X210507490Y-135899500D01*
X210507482Y-135899500D01*
X210404703Y-135910000D01*
X210404702Y-135910001D01*
X210322169Y-135937349D01*
X210238167Y-135965185D01*
X210238162Y-135965187D01*
X210088842Y-136057289D01*
X209964789Y-136181342D01*
X209872687Y-136330662D01*
X209872686Y-136330665D01*
X209817501Y-136497202D01*
X209817501Y-136497203D01*
X209817500Y-136497203D01*
X209807000Y-136599982D01*
X209807000Y-138400017D01*
X209817500Y-138502796D01*
X209872685Y-138669332D01*
X209872687Y-138669337D01*
X209904426Y-138720793D01*
X209964788Y-138818656D01*
X210088844Y-138942712D01*
X210238165Y-139034814D01*
X210302005Y-139055968D01*
X210359448Y-139095739D01*
X210386272Y-139160254D01*
X210387000Y-139173673D01*
X210387000Y-144270397D01*
X210367315Y-144337436D01*
X210319300Y-144380879D01*
X210305889Y-144387712D01*
X210140286Y-144508028D01*
X209995528Y-144652786D01*
X209875215Y-144818386D01*
X209782281Y-145000776D01*
X209719022Y-145195465D01*
X209687000Y-145397648D01*
X202127495Y-145397648D01*
X202095490Y-145195582D01*
X202032255Y-145000968D01*
X201939359Y-144818650D01*
X201906974Y-144774077D01*
X201906974Y-144774076D01*
X201227500Y-145453551D01*
X201227500Y-145447339D01*
X201200241Y-145345606D01*
X201147580Y-145254394D01*
X201073106Y-145179920D01*
X200981894Y-145127259D01*
X200880161Y-145100000D01*
X200873946Y-145100000D01*
X201553422Y-144420524D01*
X201553421Y-144420523D01*
X201508859Y-144388147D01*
X201508850Y-144388141D01*
X201326531Y-144295244D01*
X201131917Y-144232009D01*
X200929817Y-144200000D01*
X200725183Y-144200000D01*
X200523082Y-144232009D01*
X200328468Y-144295244D01*
X200146144Y-144388143D01*
X200101577Y-144420523D01*
X200101577Y-144420524D01*
X200781054Y-145100000D01*
X200774839Y-145100000D01*
X200673106Y-145127259D01*
X200581894Y-145179920D01*
X200507420Y-145254394D01*
X200454759Y-145345606D01*
X200427500Y-145447339D01*
X200427500Y-145453553D01*
X199748024Y-144774077D01*
X199748023Y-144774077D01*
X199715643Y-144818644D01*
X199622744Y-145000968D01*
X199559509Y-145195582D01*
X199527500Y-145397682D01*
X191627500Y-145397682D01*
X191627500Y-145382028D01*
X191627499Y-145382014D01*
X191596700Y-145148085D01*
X191535629Y-144920162D01*
X191445339Y-144702180D01*
X191445334Y-144702171D01*
X191345805Y-144529784D01*
X191345804Y-144529782D01*
X191327359Y-144497834D01*
X191327354Y-144497827D01*
X191264777Y-144416275D01*
X190428541Y-145252511D01*
X190403522Y-145192110D01*
X190332388Y-145085649D01*
X190241851Y-144995112D01*
X190135390Y-144923978D01*
X190074988Y-144898958D01*
X190911223Y-144062721D01*
X190829672Y-144000145D01*
X190829671Y-144000144D01*
X190625328Y-143882165D01*
X190625319Y-143882160D01*
X190407336Y-143791870D01*
X190407338Y-143791870D01*
X190179414Y-143730799D01*
X189945485Y-143700000D01*
X189709514Y-143700000D01*
X189475585Y-143730799D01*
X189247662Y-143791870D01*
X189029680Y-143882160D01*
X189029671Y-143882165D01*
X188825328Y-144000144D01*
X188825318Y-144000150D01*
X188743775Y-144062720D01*
X188743775Y-144062721D01*
X189580012Y-144898958D01*
X189519610Y-144923978D01*
X189413149Y-144995112D01*
X189322612Y-145085649D01*
X189251478Y-145192110D01*
X189226458Y-145252511D01*
X188390221Y-144416275D01*
X188390220Y-144416275D01*
X188327650Y-144497818D01*
X188327644Y-144497828D01*
X188209665Y-144702171D01*
X188209660Y-144702180D01*
X188119370Y-144920162D01*
X188058299Y-145148085D01*
X188027500Y-145382014D01*
X180328000Y-145382014D01*
X180328000Y-140381995D01*
X188027000Y-140381995D01*
X188027000Y-140618004D01*
X188027001Y-140618020D01*
X188057806Y-140852010D01*
X188118894Y-141079993D01*
X188209214Y-141298045D01*
X188209219Y-141298056D01*
X188280177Y-141420957D01*
X188327227Y-141502450D01*
X188327229Y-141502453D01*
X188327230Y-141502454D01*
X188470906Y-141689697D01*
X188470912Y-141689704D01*
X188637795Y-141856587D01*
X188637801Y-141856592D01*
X188825050Y-142000273D01*
X188933213Y-142062721D01*
X189029443Y-142118280D01*
X189029448Y-142118282D01*
X189029451Y-142118284D01*
X189247507Y-142208606D01*
X189475486Y-142269693D01*
X189709489Y-142300500D01*
X189709496Y-142300500D01*
X189945504Y-142300500D01*
X189945511Y-142300500D01*
X190179514Y-142269693D01*
X190407493Y-142208606D01*
X190625549Y-142118284D01*
X190829950Y-142000273D01*
X191017199Y-141856592D01*
X191184092Y-141689699D01*
X191327773Y-141502450D01*
X191445784Y-141298049D01*
X191536106Y-141079993D01*
X191597193Y-140852014D01*
X191628000Y-140618011D01*
X191628000Y-140381989D01*
X191597193Y-140147986D01*
X191536106Y-139920007D01*
X191485983Y-139799001D01*
X191478515Y-139729535D01*
X191509790Y-139667055D01*
X191512835Y-139663899D01*
X193039917Y-138136819D01*
X193101240Y-138103334D01*
X193127598Y-138100500D01*
X199681200Y-138100500D01*
X199748239Y-138120185D01*
X199791685Y-138168205D01*
X199878632Y-138338848D01*
X200026701Y-138542649D01*
X200026705Y-138542654D01*
X200204845Y-138720794D01*
X200204850Y-138720798D01*
X200371003Y-138841514D01*
X200408655Y-138868870D01*
X200551684Y-138941747D01*
X200633116Y-138983239D01*
X200633118Y-138983239D01*
X200633121Y-138983241D01*
X200872715Y-139061090D01*
X201121538Y-139100500D01*
X201121539Y-139100500D01*
X201373461Y-139100500D01*
X201373462Y-139100500D01*
X201622285Y-139061090D01*
X201861879Y-138983241D01*
X202086345Y-138868870D01*
X202290156Y-138720793D01*
X202468293Y-138542656D01*
X202616370Y-138338845D01*
X202730741Y-138114379D01*
X202808590Y-137874785D01*
X202848000Y-137625962D01*
X202848000Y-137374038D01*
X202808590Y-137125215D01*
X202730741Y-136885621D01*
X202730739Y-136885618D01*
X202730739Y-136885616D01*
X202689247Y-136804184D01*
X202616370Y-136661155D01*
X202571925Y-136599982D01*
X202468298Y-136457350D01*
X202468294Y-136457345D01*
X202290154Y-136279205D01*
X202290149Y-136279201D01*
X202086348Y-136131132D01*
X202086347Y-136131131D01*
X202086345Y-136131130D01*
X202016247Y-136095413D01*
X201861883Y-136016760D01*
X201622285Y-135938910D01*
X201373462Y-135899500D01*
X201121538Y-135899500D01*
X201055238Y-135910001D01*
X200872714Y-135938910D01*
X200633116Y-136016760D01*
X200408651Y-136131132D01*
X200204850Y-136279201D01*
X200204845Y-136279205D01*
X200026705Y-136457345D01*
X200026701Y-136457350D01*
X199878632Y-136661151D01*
X199791685Y-136831795D01*
X199743711Y-136882591D01*
X199681200Y-136899500D01*
X192914170Y-136899500D01*
X192914154Y-136899499D01*
X192906558Y-136899499D01*
X192748443Y-136899499D01*
X192672079Y-136919961D01*
X192595714Y-136940423D01*
X192595709Y-136940426D01*
X192458790Y-137019475D01*
X192458782Y-137019481D01*
X190663628Y-138814634D01*
X190602305Y-138848119D01*
X190532613Y-138843135D01*
X190528494Y-138841514D01*
X190407497Y-138791395D01*
X190179510Y-138730306D01*
X189945520Y-138699501D01*
X189945517Y-138699500D01*
X189945511Y-138699500D01*
X189709489Y-138699500D01*
X189709483Y-138699500D01*
X189709479Y-138699501D01*
X189475489Y-138730306D01*
X189247506Y-138791394D01*
X189029454Y-138881714D01*
X189029443Y-138881719D01*
X188825045Y-138999730D01*
X188637802Y-139143406D01*
X188637795Y-139143412D01*
X188470912Y-139310295D01*
X188470906Y-139310302D01*
X188327230Y-139497545D01*
X188209219Y-139701943D01*
X188209214Y-139701954D01*
X188118894Y-139920006D01*
X188057806Y-140147989D01*
X188027001Y-140381979D01*
X188027000Y-140381995D01*
X180328000Y-140381995D01*
X180328000Y-133624500D01*
X180347685Y-133557461D01*
X180400489Y-133511706D01*
X180452000Y-133500500D01*
X229203000Y-133500500D01*
X229270039Y-133520185D01*
G37*
%TD.AperFunction*%
%TD*%
M02*
