%TF.GenerationSoftware,KiCad,Pcbnew,9.0.2*%
%TF.CreationDate,2025-06-05T14:58:04+05:30*%
%TF.ProjectId,fullwave rectifier,66756c6c-7761-4766-9520-726563746966,v1*%
%TF.SameCoordinates,Original*%
%TF.FileFunction,Legend,Top*%
%TF.FilePolarity,Positive*%
%FSLAX46Y46*%
G04 Gerber Fmt 4.6, Leading zero omitted, Abs format (unit mm)*
G04 Created by KiCad (PCBNEW 9.0.2) date 2025-06-05 14:58:04*
%MOMM*%
%LPD*%
G01*
G04 APERTURE LIST*
%ADD10C,0.150000*%
%ADD11C,0.120000*%
G04 APERTURE END LIST*
D10*
X213134819Y-146333333D02*
X213849104Y-146333333D01*
X213849104Y-146333333D02*
X213991961Y-146380952D01*
X213991961Y-146380952D02*
X214087200Y-146476190D01*
X214087200Y-146476190D02*
X214134819Y-146619047D01*
X214134819Y-146619047D02*
X214134819Y-146714285D01*
X213230057Y-145904761D02*
X213182438Y-145857142D01*
X213182438Y-145857142D02*
X213134819Y-145761904D01*
X213134819Y-145761904D02*
X213134819Y-145523809D01*
X213134819Y-145523809D02*
X213182438Y-145428571D01*
X213182438Y-145428571D02*
X213230057Y-145380952D01*
X213230057Y-145380952D02*
X213325295Y-145333333D01*
X213325295Y-145333333D02*
X213420533Y-145333333D01*
X213420533Y-145333333D02*
X213563390Y-145380952D01*
X213563390Y-145380952D02*
X214134819Y-145952380D01*
X214134819Y-145952380D02*
X214134819Y-145333333D01*
X205589405Y-140424819D02*
X205589405Y-139424819D01*
X205589405Y-139424819D02*
X205827500Y-139424819D01*
X205827500Y-139424819D02*
X205970357Y-139472438D01*
X205970357Y-139472438D02*
X206065595Y-139567676D01*
X206065595Y-139567676D02*
X206113214Y-139662914D01*
X206113214Y-139662914D02*
X206160833Y-139853390D01*
X206160833Y-139853390D02*
X206160833Y-139996247D01*
X206160833Y-139996247D02*
X206113214Y-140186723D01*
X206113214Y-140186723D02*
X206065595Y-140281961D01*
X206065595Y-140281961D02*
X205970357Y-140377200D01*
X205970357Y-140377200D02*
X205827500Y-140424819D01*
X205827500Y-140424819D02*
X205589405Y-140424819D01*
X207113214Y-140424819D02*
X206541786Y-140424819D01*
X206827500Y-140424819D02*
X206827500Y-139424819D01*
X206827500Y-139424819D02*
X206732262Y-139567676D01*
X206732262Y-139567676D02*
X206637024Y-139662914D01*
X206637024Y-139662914D02*
X206541786Y-139710533D01*
X211145595Y-140054819D02*
X211145595Y-139054819D01*
X211717023Y-140054819D02*
X211288452Y-139483390D01*
X211717023Y-139054819D02*
X211145595Y-139626247D01*
X182962319Y-145833333D02*
X183676604Y-145833333D01*
X183676604Y-145833333D02*
X183819461Y-145880952D01*
X183819461Y-145880952D02*
X183914700Y-145976190D01*
X183914700Y-145976190D02*
X183962319Y-146119047D01*
X183962319Y-146119047D02*
X183962319Y-146214285D01*
X183962319Y-144833333D02*
X183962319Y-145404761D01*
X183962319Y-145119047D02*
X182962319Y-145119047D01*
X182962319Y-145119047D02*
X183105176Y-145214285D01*
X183105176Y-145214285D02*
X183200414Y-145309523D01*
X183200414Y-145309523D02*
X183248033Y-145404761D01*
X205589405Y-156424819D02*
X205589405Y-155424819D01*
X205589405Y-155424819D02*
X205827500Y-155424819D01*
X205827500Y-155424819D02*
X205970357Y-155472438D01*
X205970357Y-155472438D02*
X206065595Y-155567676D01*
X206065595Y-155567676D02*
X206113214Y-155662914D01*
X206113214Y-155662914D02*
X206160833Y-155853390D01*
X206160833Y-155853390D02*
X206160833Y-155996247D01*
X206160833Y-155996247D02*
X206113214Y-156186723D01*
X206113214Y-156186723D02*
X206065595Y-156281961D01*
X206065595Y-156281961D02*
X205970357Y-156377200D01*
X205970357Y-156377200D02*
X205827500Y-156424819D01*
X205827500Y-156424819D02*
X205589405Y-156424819D01*
X206541786Y-155520057D02*
X206589405Y-155472438D01*
X206589405Y-155472438D02*
X206684643Y-155424819D01*
X206684643Y-155424819D02*
X206922738Y-155424819D01*
X206922738Y-155424819D02*
X207017976Y-155472438D01*
X207017976Y-155472438D02*
X207065595Y-155520057D01*
X207065595Y-155520057D02*
X207113214Y-155615295D01*
X207113214Y-155615295D02*
X207113214Y-155710533D01*
X207113214Y-155710533D02*
X207065595Y-155853390D01*
X207065595Y-155853390D02*
X206494167Y-156424819D01*
X206494167Y-156424819D02*
X207113214Y-156424819D01*
X211145595Y-156054819D02*
X211145595Y-155054819D01*
X211717023Y-156054819D02*
X211288452Y-155483390D01*
X211717023Y-155054819D02*
X211145595Y-155626247D01*
X205740833Y-143584819D02*
X205407500Y-143108628D01*
X205169405Y-143584819D02*
X205169405Y-142584819D01*
X205169405Y-142584819D02*
X205550357Y-142584819D01*
X205550357Y-142584819D02*
X205645595Y-142632438D01*
X205645595Y-142632438D02*
X205693214Y-142680057D01*
X205693214Y-142680057D02*
X205740833Y-142775295D01*
X205740833Y-142775295D02*
X205740833Y-142918152D01*
X205740833Y-142918152D02*
X205693214Y-143013390D01*
X205693214Y-143013390D02*
X205645595Y-143061009D01*
X205645595Y-143061009D02*
X205550357Y-143108628D01*
X205550357Y-143108628D02*
X205169405Y-143108628D01*
X206693214Y-143584819D02*
X206121786Y-143584819D01*
X206407500Y-143584819D02*
X206407500Y-142584819D01*
X206407500Y-142584819D02*
X206312262Y-142727676D01*
X206312262Y-142727676D02*
X206217024Y-142822914D01*
X206217024Y-142822914D02*
X206121786Y-142870533D01*
D11*
%TO.C,J2*%
X214680000Y-140880000D02*
X224720000Y-140880000D01*
X214680000Y-151120000D02*
X214680000Y-140880000D01*
X214680000Y-151120000D02*
X224720000Y-151120000D01*
X217700000Y-151120000D02*
X217700000Y-140880000D01*
X222600000Y-151120000D02*
X222600000Y-140880000D01*
X224100000Y-151120000D02*
X224100000Y-140880000D01*
X224720000Y-148200000D02*
X224720000Y-140880000D01*
X224720000Y-151120000D02*
X224720000Y-148800000D01*
X225330000Y-148940000D02*
X224720000Y-148500000D01*
X225330000Y-148060000D01*
X225330000Y-148940000D01*
G36*
X225330000Y-148940000D02*
G01*
X224720000Y-148500000D01*
X225330000Y-148060000D01*
X225330000Y-148940000D01*
G37*
%TO.C,D1*%
X202587500Y-137500000D02*
X203607500Y-137500000D01*
X208027500Y-138970000D02*
X208027500Y-136030000D01*
X208147500Y-138970000D02*
X208147500Y-136030000D01*
X208267500Y-138970000D02*
X208267500Y-136030000D01*
X210067500Y-137500000D02*
X209047500Y-137500000D01*
X209047500Y-138970000D02*
X203607500Y-138970000D01*
X203607500Y-136030000D01*
X209047500Y-136030000D01*
X209047500Y-138970000D01*
%TO.C,J1*%
X184507500Y-137880000D02*
X194547500Y-137880000D01*
X184507500Y-153120000D02*
X184507500Y-137880000D01*
X184507500Y-153120000D02*
X194547500Y-153120000D01*
X187527500Y-153120000D02*
X187527500Y-137880000D01*
X192427500Y-153120000D02*
X192427500Y-137880000D01*
X193927500Y-153120000D02*
X193927500Y-137880000D01*
X194547500Y-150200000D02*
X194547500Y-137880000D01*
X194547500Y-153120000D02*
X194547500Y-150800000D01*
X195157500Y-150940000D02*
X194547500Y-150500000D01*
X195157500Y-150060000D01*
X195157500Y-150940000D01*
G36*
X195157500Y-150940000D02*
G01*
X194547500Y-150500000D01*
X195157500Y-150060000D01*
X195157500Y-150940000D01*
G37*
%TO.C,D2*%
X202587500Y-153500000D02*
X203607500Y-153500000D01*
X208027500Y-154970000D02*
X208027500Y-152030000D01*
X208147500Y-154970000D02*
X208147500Y-152030000D01*
X208267500Y-154970000D02*
X208267500Y-152030000D01*
X210067500Y-153500000D02*
X209047500Y-153500000D01*
X209047500Y-154970000D02*
X203607500Y-154970000D01*
X203607500Y-152030000D01*
X209047500Y-152030000D01*
X209047500Y-154970000D01*
%TO.C,R1*%
X201867500Y-145500000D02*
X202637500Y-145500000D01*
X209947500Y-145500000D02*
X209177500Y-145500000D01*
X202637500Y-144130000D02*
X209177500Y-144130000D01*
X209177500Y-146870000D01*
X202637500Y-146870000D01*
X202637500Y-144130000D01*
%TD*%
M02*
