%TF.GenerationSoftware,KiCad,Pcbnew,9.0.2*%
%TF.CreationDate,2025-06-05T19:52:50+05:30*%
%TF.ProjectId,Ohms law 2 layers,4f686d73-206c-4617-9720-32206c617965,rev?*%
%TF.SameCoordinates,Original*%
%TF.FileFunction,Copper,L2,Bot*%
%TF.FilePolarity,Positive*%
%FSLAX46Y46*%
G04 Gerber Fmt 4.6, Leading zero omitted, Abs format (unit mm)*
G04 Created by KiCad (PCBNEW 9.0.2) date 2025-06-05 19:52:50*
%MOMM*%
%LPD*%
G01*
G04 APERTURE LIST*
G04 Aperture macros list*
%AMRoundRect*
0 Rectangle with rounded corners*
0 $1 Rounding radius*
0 $2 $3 $4 $5 $6 $7 $8 $9 X,Y pos of 4 corners*
0 Add a 4 corners polygon primitive as box body*
4,1,4,$2,$3,$4,$5,$6,$7,$8,$9,$2,$3,0*
0 Add four circle primitives for the rounded corners*
1,1,$1+$1,$2,$3*
1,1,$1+$1,$4,$5*
1,1,$1+$1,$6,$7*
1,1,$1+$1,$8,$9*
0 Add four rect primitives between the rounded corners*
20,1,$1+$1,$2,$3,$4,$5,0*
20,1,$1+$1,$4,$5,$6,$7,0*
20,1,$1+$1,$6,$7,$8,$9,0*
20,1,$1+$1,$8,$9,$2,$3,0*%
G04 Aperture macros list end*
%TA.AperFunction,ComponentPad*%
%ADD10R,1.700000X1.700000*%
%TD*%
%TA.AperFunction,ComponentPad*%
%ADD11C,1.700000*%
%TD*%
%TA.AperFunction,SMDPad,CuDef*%
%ADD12RoundRect,0.250000X-0.450000X0.262500X-0.450000X-0.262500X0.450000X-0.262500X0.450000X0.262500X0*%
%TD*%
%TA.AperFunction,ViaPad*%
%ADD13C,0.600000*%
%TD*%
%TA.AperFunction,Conductor*%
%ADD14C,0.200000*%
%TD*%
G04 APERTURE END LIST*
D10*
%TO.P,V1,1*%
%TO.N,Net-(R1-Pad1)*%
X179000000Y-109960000D03*
D11*
%TO.P,V1,2*%
%TO.N,GND*%
X179000000Y-112500000D03*
%TD*%
D12*
%TO.P,R1,1*%
%TO.N,Net-(R1-Pad1)*%
X191885000Y-110322500D03*
%TO.P,R1,2*%
%TO.N,GND*%
X191885000Y-112147500D03*
%TD*%
D13*
%TO.N,GND*%
X191000000Y-115500000D03*
%TO.N,Net-(R1-Pad1)*%
X180500000Y-106500000D03*
%TD*%
D14*
%TO.N,GND*%
X191000000Y-115500000D02*
X191250000Y-115250000D01*
X191885000Y-114615000D02*
X191000000Y-115500000D01*
X191885000Y-112147500D02*
X191885000Y-114615000D01*
%TO.N,Net-(R1-Pad1)*%
X180500000Y-106500000D02*
X191000000Y-106500000D01*
X191000000Y-106500000D02*
X191885000Y-107385000D01*
X191885000Y-107385000D02*
X191885000Y-110322500D01*
%TD*%
%TA.AperFunction,Conductor*%
%TO.N,GND*%
G36*
X194442539Y-105020185D02*
G01*
X194488294Y-105072989D01*
X194499500Y-105124500D01*
X194499500Y-117375500D01*
X194479815Y-117442539D01*
X194427011Y-117488294D01*
X194375500Y-117499500D01*
X175624500Y-117499500D01*
X175557461Y-117479815D01*
X175511706Y-117427011D01*
X175500500Y-117375500D01*
X175500500Y-109062135D01*
X177649500Y-109062135D01*
X177649500Y-110857870D01*
X177649501Y-110857876D01*
X177655908Y-110917483D01*
X177706202Y-111052328D01*
X177706206Y-111052335D01*
X177792452Y-111167544D01*
X177792455Y-111167547D01*
X177907664Y-111253793D01*
X177907671Y-111253797D01*
X177952618Y-111270561D01*
X178042517Y-111304091D01*
X178102127Y-111310500D01*
X178112685Y-111310499D01*
X178179723Y-111330179D01*
X178200372Y-111346818D01*
X178870591Y-112017037D01*
X178807007Y-112034075D01*
X178692993Y-112099901D01*
X178599901Y-112192993D01*
X178534075Y-112307007D01*
X178517037Y-112370591D01*
X177884728Y-111738282D01*
X177884727Y-111738282D01*
X177845380Y-111792439D01*
X177748904Y-111981782D01*
X177683242Y-112183869D01*
X177683242Y-112183872D01*
X177650000Y-112393753D01*
X177650000Y-112606246D01*
X177683242Y-112816127D01*
X177683242Y-112816130D01*
X177748904Y-113018217D01*
X177845375Y-113207550D01*
X177884728Y-113261716D01*
X178517036Y-112629407D01*
X178534075Y-112692993D01*
X178599901Y-112807007D01*
X178692993Y-112900099D01*
X178807007Y-112965925D01*
X178870590Y-112982962D01*
X178238282Y-113615269D01*
X178238282Y-113615270D01*
X178292449Y-113654624D01*
X178481782Y-113751095D01*
X178683870Y-113816757D01*
X178893754Y-113850000D01*
X179106246Y-113850000D01*
X179316127Y-113816757D01*
X179316130Y-113816757D01*
X179518217Y-113751095D01*
X179707554Y-113654622D01*
X179761716Y-113615270D01*
X179761717Y-113615270D01*
X179129408Y-112982962D01*
X179192993Y-112965925D01*
X179307007Y-112900099D01*
X179400099Y-112807007D01*
X179465925Y-112692993D01*
X179482962Y-112629408D01*
X180115270Y-113261717D01*
X180115270Y-113261716D01*
X180154622Y-113207554D01*
X180251095Y-113018217D01*
X180316757Y-112816130D01*
X180316757Y-112816127D01*
X180350000Y-112606246D01*
X180350000Y-112459986D01*
X190685001Y-112459986D01*
X190695494Y-112562697D01*
X190750641Y-112729119D01*
X190750643Y-112729124D01*
X190842684Y-112878345D01*
X190966654Y-113002315D01*
X191115875Y-113094356D01*
X191115880Y-113094358D01*
X191282302Y-113149505D01*
X191282309Y-113149506D01*
X191385019Y-113159999D01*
X191634999Y-113159999D01*
X192135000Y-113159999D01*
X192384972Y-113159999D01*
X192384986Y-113159998D01*
X192487697Y-113149505D01*
X192654119Y-113094358D01*
X192654124Y-113094356D01*
X192803345Y-113002315D01*
X192927315Y-112878345D01*
X193019356Y-112729124D01*
X193019358Y-112729119D01*
X193074505Y-112562697D01*
X193074506Y-112562690D01*
X193084999Y-112459986D01*
X193085000Y-112459973D01*
X193085000Y-112397500D01*
X192135000Y-112397500D01*
X192135000Y-113159999D01*
X191634999Y-113159999D01*
X191635000Y-113159998D01*
X191635000Y-112397500D01*
X190685001Y-112397500D01*
X190685001Y-112459986D01*
X180350000Y-112459986D01*
X180350000Y-112393758D01*
X180345530Y-112365535D01*
X180345530Y-112365532D01*
X180316757Y-112183872D01*
X180316757Y-112183869D01*
X180251095Y-111981782D01*
X180154624Y-111792449D01*
X180115270Y-111738282D01*
X180115269Y-111738282D01*
X179482962Y-112370590D01*
X179465925Y-112307007D01*
X179400099Y-112192993D01*
X179307007Y-112099901D01*
X179192993Y-112034075D01*
X179129409Y-112017037D01*
X179799627Y-111346818D01*
X179860950Y-111313333D01*
X179887307Y-111310499D01*
X179897872Y-111310499D01*
X179957483Y-111304091D01*
X180092331Y-111253796D01*
X180207546Y-111167546D01*
X180293796Y-111052331D01*
X180344091Y-110917483D01*
X180350500Y-110857873D01*
X180350499Y-109062128D01*
X180344091Y-109002517D01*
X180293796Y-108867669D01*
X180293795Y-108867668D01*
X180293793Y-108867664D01*
X180207547Y-108752455D01*
X180207544Y-108752452D01*
X180092335Y-108666206D01*
X180092328Y-108666202D01*
X179957482Y-108615908D01*
X179957483Y-108615908D01*
X179897883Y-108609501D01*
X179897881Y-108609500D01*
X179897873Y-108609500D01*
X179897864Y-108609500D01*
X178102129Y-108609500D01*
X178102123Y-108609501D01*
X178042516Y-108615908D01*
X177907671Y-108666202D01*
X177907664Y-108666206D01*
X177792455Y-108752452D01*
X177792452Y-108752455D01*
X177706206Y-108867664D01*
X177706202Y-108867671D01*
X177655908Y-109002517D01*
X177649501Y-109062116D01*
X177649501Y-109062123D01*
X177649500Y-109062135D01*
X175500500Y-109062135D01*
X175500500Y-106421153D01*
X179699500Y-106421153D01*
X179699500Y-106578846D01*
X179730261Y-106733489D01*
X179730264Y-106733501D01*
X179790602Y-106879172D01*
X179790609Y-106879185D01*
X179878210Y-107010288D01*
X179878213Y-107010292D01*
X179989707Y-107121786D01*
X179989711Y-107121789D01*
X180120814Y-107209390D01*
X180120827Y-107209397D01*
X180266498Y-107269735D01*
X180266503Y-107269737D01*
X180421153Y-107300499D01*
X180421156Y-107300500D01*
X180421158Y-107300500D01*
X180578844Y-107300500D01*
X180578845Y-107300499D01*
X180733497Y-107269737D01*
X180879179Y-107209394D01*
X180963260Y-107153213D01*
X181010875Y-107121398D01*
X181077553Y-107100520D01*
X181079766Y-107100500D01*
X190699903Y-107100500D01*
X190766942Y-107120185D01*
X190787584Y-107136819D01*
X191248181Y-107597416D01*
X191281666Y-107658739D01*
X191284500Y-107685097D01*
X191284500Y-109229699D01*
X191264815Y-109296738D01*
X191212011Y-109342493D01*
X191199507Y-109347403D01*
X191166962Y-109358188D01*
X191115668Y-109375185D01*
X191115663Y-109375187D01*
X190966342Y-109467289D01*
X190842289Y-109591342D01*
X190750187Y-109740663D01*
X190750186Y-109740666D01*
X190695001Y-109907203D01*
X190695001Y-109907204D01*
X190695000Y-109907204D01*
X190684500Y-110009983D01*
X190684500Y-110635001D01*
X190684501Y-110635019D01*
X190695000Y-110737796D01*
X190695001Y-110737799D01*
X190750185Y-110904331D01*
X190750186Y-110904334D01*
X190841473Y-111052335D01*
X190842289Y-111053657D01*
X190936304Y-111147672D01*
X190969789Y-111208995D01*
X190964805Y-111278687D01*
X190936305Y-111323034D01*
X190842682Y-111416657D01*
X190750643Y-111565875D01*
X190750641Y-111565880D01*
X190695494Y-111732302D01*
X190695493Y-111732309D01*
X190685000Y-111835013D01*
X190685000Y-111897500D01*
X193084999Y-111897500D01*
X193084999Y-111835028D01*
X193084998Y-111835013D01*
X193074505Y-111732302D01*
X193019358Y-111565880D01*
X193019356Y-111565875D01*
X192927315Y-111416654D01*
X192833695Y-111323034D01*
X192800210Y-111261711D01*
X192805194Y-111192019D01*
X192833691Y-111147676D01*
X192927712Y-111053656D01*
X193019814Y-110904334D01*
X193074999Y-110737797D01*
X193085500Y-110635009D01*
X193085499Y-110009992D01*
X193074999Y-109907203D01*
X193019814Y-109740666D01*
X192927712Y-109591344D01*
X192803656Y-109467288D01*
X192654334Y-109375186D01*
X192570495Y-109347404D01*
X192513051Y-109307632D01*
X192486228Y-109243116D01*
X192485500Y-109229699D01*
X192485500Y-107474059D01*
X192485501Y-107474046D01*
X192485501Y-107305945D01*
X192485501Y-107305943D01*
X192444577Y-107153215D01*
X192400265Y-107076465D01*
X192365520Y-107016284D01*
X192253716Y-106904480D01*
X192249385Y-106900149D01*
X192249374Y-106900139D01*
X191487590Y-106138355D01*
X191487588Y-106138352D01*
X191368717Y-106019481D01*
X191368716Y-106019480D01*
X191281904Y-105969360D01*
X191281904Y-105969359D01*
X191281900Y-105969358D01*
X191231785Y-105940423D01*
X191079057Y-105899499D01*
X190920943Y-105899499D01*
X190913347Y-105899499D01*
X190913331Y-105899500D01*
X181079766Y-105899500D01*
X181012727Y-105879815D01*
X181010875Y-105878602D01*
X180879185Y-105790609D01*
X180879172Y-105790602D01*
X180733501Y-105730264D01*
X180733489Y-105730261D01*
X180578845Y-105699500D01*
X180578842Y-105699500D01*
X180421158Y-105699500D01*
X180421155Y-105699500D01*
X180266510Y-105730261D01*
X180266498Y-105730264D01*
X180120827Y-105790602D01*
X180120814Y-105790609D01*
X179989711Y-105878210D01*
X179989707Y-105878213D01*
X179878213Y-105989707D01*
X179878210Y-105989711D01*
X179790609Y-106120814D01*
X179790602Y-106120827D01*
X179730264Y-106266498D01*
X179730261Y-106266510D01*
X179699500Y-106421153D01*
X175500500Y-106421153D01*
X175500500Y-105124500D01*
X175520185Y-105057461D01*
X175572989Y-105011706D01*
X175624500Y-105000500D01*
X194375500Y-105000500D01*
X194442539Y-105020185D01*
G37*
%TD.AperFunction*%
%TD*%
M02*
